<svg xmlns="http://www.w3.org/2000/svg" width="123" height="39" viewBox="0 0 123 39">
    <defs>
        <linearGradient id="a" x1="50%" x2="50%" y1="6.4%" y2="97.251%">
            <stop offset="0%" stop-color="#FFD225"/>
            <stop offset="100%" stop-color="#E27E00"/>
        </linearGradient>
    </defs>
    <g fill="none" fill-rule="nonzero">
        <path fill="url(#a)" d="M66 .26C61.84-1 54.48 2.7 49.24 9.56c.61.86 1.16 1.78 1.69 2.71l.25-.19A13.51 13.51 0 0 1 55.81 10a12.4 12.4 0 0 1 3-.37 13 13 0 0 1 2.07.17 12.72 12.72 0 0 1 5 1.83 13.94 13.94 0 0 1 3.33 2.91 14.36 14.36 0 0 1 2.13 3.7 3.21 3.21 0 0 1-1.88 4.06 2.91 2.91 0 0 1-1.1.21 3.2 3.2 0 0 1-1.71-.51 3.12 3.12 0 0 1-1.29-1.59A6.94 6.94 0 0 0 58.89 16a7.12 7.12 0 0 0-1.64.19 6.87 6.87 0 0 0-3.63 2.16l.12.32a16.79 16.79 0 0 1 .26 9.27c.311.27.646.51 1 .72a6.71 6.71 0 0 0 2.49.93c.33.059.665.089 1 .09.486 0 .97-.063 1.44-.19a7 7 0 0 0 2.33-1l-2.58-1.6a2.86 2.86 0 0 1-.89-3.93 2.84 2.84 0 0 1 3.83-.96l5.73 3.56c.103.06.197.134.28.22a3.14 3.14 0 0 1 .69 4.29 13.42 13.42 0 0 1-8 5.56c-.96.23-1.943.348-2.93.35a12.93 12.93 0 0 1-6.8-2l-.4-.28a16.18 16.18 0 0 1-1.24 1.5 14.63 14.63 0 0 0 4.35 2.21c7.886 2.483 16.294-1.882 18.8-9.76C77 15.25 71.71 2.06 66 .26z"/>
        <path fill="url(#a)" d="M51.74 18.66C47.85 6.26 36-1.54 30.24.26c-5.76 1.8-11 15-7.12 27.39a15 15 0 1 0 28.62-9v.01zm-1.48 7.68a12.67 12.67 0 0 1-5.95 7.86 12.65 12.65 0 0 1-10 1.28c-7-1.967-11.139-9.173-9.31-16.21a12.08 12.08 0 0 1 2.19-4.58 12.57 12.57 0 0 1 3.91-3.54 13.92 13.92 0 0 1 4.13-1.59A15.88 15.88 0 0 1 38 9.31c.505 0 1.009.03 1.51.09a3.22 3.22 0 0 1 2.73 3.6 3.08 3.08 0 0 1-1.53 2.32 3.11 3.11 0 0 1-2 .4 6.35 6.35 0 0 0-.87 0 6.95 6.95 0 0 0-6.7 5.23 6.88 6.88 0 0 0 .71 5.26A7.11 7.11 0 0 0 36 29.43a6.46 6.46 0 0 0 1.74.24 6.63 6.63 0 0 0 3.33-.92 6.71 6.71 0 0 0 2-1.77 5.67 5.67 0 0 0 1.06-2.23 6.75 6.75 0 0 0 .16-2.54l-2.62 1.54a2.76 2.76 0 0 1-1.41.38 2.91 2.91 0 0 1-2.48-1.42 2.87 2.87 0 0 1 1-3.87l5.82-3.42a1.3 1.3 0 0 1 .33-.14c.415-.198.87-.3 1.33-.3a3.13 3.13 0 0 1 2.78 1.69 13.41 13.41 0 0 1 1.22 9.67z"/>
        <path fill="#FFF" d="M16.23 27.36a3.17 3.17 0 1 1 0 6.34h-13A3.15 3.15 0 0 1 0 30.51V7.07a3.15 3.15 0 0 1 3.19-3.19h13a3.17 3.17 0 1 1 0 6.34H6.34V16h7.89a2.81 2.81 0 0 1 0 5.62H6.34v5.78l9.89-.04zM94.94 27.36a3.17 3.17 0 1 1 0 6.34h-13a3.15 3.15 0 0 1-3.19-3.19V7.07a3.15 3.15 0 0 1 3.15-3.19h13a3.17 3.17 0 1 1 0 6.34h-9.85V16h7.89a2.81 2.81 0 0 1 0 5.62h-7.89v5.78l9.89-.04zM122.24 29.32A2.81 2.81 0 0 1 120 33.7a2.91 2.91 0 0 1-2.39-1.23l-6.89-10h-2v8.13a3.15 3.15 0 1 1-6.29 0V7.07a3.19 3.19 0 0 1 3.1-3.15h8.3a9.22 9.22 0 0 1 3.57.77 8 8 0 0 1 2.94 2 7.8 7.8 0 0 1 2 2.89 10.47 10.47 0 0 1 .66 3.62 10.42 10.42 0 0 1-.72 3.57 9.61 9.61 0 0 1-2 2.89 9.13 9.13 0 0 1-2.94 2 2.68 2.68 0 0 0-.34.17l5.24 7.49zm-8.46-19h-5.11v5.75h5.11a2.8 2.8 0 0 0 2.81-2.85 2.83 2.83 0 0 0-2.81-2.92v.02z"/>
    </g>
</svg>
