<svg xmlns="http://www.w3.org/2000/svg" width="49" height="36" viewBox="0 0 49 36">
    <defs>
        <linearGradient id="a" x1="50%" x2="50%" y1="6.4%" y2="97.251%">
            <stop offset="0%" stop-color="#FFD225"/>
            <stop offset="100%" stop-color="#E27E00"/>
        </linearGradient>
    </defs>
    <g fill="url(#a)" fill-rule="nonzero" transform="translate(-32 -7)">
        <path d="M72.375 7.227C68.56 6.056 61.807 9.494 57 15.869c.56.8 1.064 1.654 1.55 2.518l.23-.176a12.317 12.317 0 0 1 4.247-1.933c.9-.228 1.824-.344 2.752-.344.636.001 1.271.054 1.9.158 1.63.233 3.193.812 4.586 1.7a12.84 12.84 0 0 1 3.055 2.705 13.388 13.388 0 0 1 1.954 3.438c.527 1.523-.237 3.195-1.725 3.773a2.64 2.64 0 0 1-1.009.195 2.909 2.909 0 0 1-1.569-.474 2.892 2.892 0 0 1-1.183-1.477c-.956-2.475-3.312-4.101-5.935-4.099-.507 0-1.012.06-1.505.177-1.29.298-2.456 1-3.33 2.007l.11.298c.876 2.791.96 5.777.239 8.614.285.25.592.474.917.669.697.44 1.474.733 2.284.864.303.055.61.083.918.084.446 0 .89-.059 1.32-.177a6.379 6.379 0 0 0 2.138-.929l-2.367-1.487a2.678 2.678 0 0 1-.816-3.652 2.586 2.586 0 0 1 3.513-.892l5.257 3.308c.095.056.181.125.257.205 1.231.942 1.51 2.7.633 3.986a12.313 12.313 0 0 1-7.34 5.167c-.88.215-1.782.324-2.687.325a11.751 11.751 0 0 1-6.238-1.858l-.367-.26c-.351.487-.731.952-1.138 1.393 1.208.906 2.557 1.6 3.99 2.054 7.235 2.308 14.948-1.748 17.247-9.07 3.578-11.523-1.275-23.78-6.513-25.452z"/>
        <path d="M59.481 24.338C55.913 12.815 45.041 5.567 39.758 7.239c-5.284 1.673-10.091 13.94-6.532 25.453 1.475 4.75 5.34 8.344 10.139 9.425 4.8 1.082 9.803-.512 13.128-4.181 3.324-3.67 4.463-8.857 2.988-13.607v.009zm-1.357 7.137a11.758 11.758 0 0 1-5.459 7.304 11.475 11.475 0 0 1-9.174 1.19c-6.42-1.828-10.218-8.525-8.54-15.064a11.289 11.289 0 0 1 2.009-4.256 11.585 11.585 0 0 1 3.587-3.29 12.672 12.672 0 0 1 3.788-1.478c.84-.152 1.69-.23 2.542-.232.463 0 .925.028 1.385.084 1.596.235 2.711 1.724 2.504 3.345a2.864 2.864 0 0 1-1.403 2.156c-.553.33-1.2.46-1.835.372a5.75 5.75 0 0 0-.798 0c-2.902.014-5.428 2.012-6.147 4.86a6.466 6.466 0 0 0 .652 4.888 6.535 6.535 0 0 0 3.807 2.992c.52.148 1.056.223 1.596.223a6.023 6.023 0 0 0 3.055-.855 6.182 6.182 0 0 0 1.835-1.645c.47-.61.802-1.317.972-2.072.196-.77.246-1.571.147-2.36l-2.404 1.43a2.507 2.507 0 0 1-1.293.354 2.663 2.663 0 0 1-2.275-1.32 2.687 2.687 0 0 1 .917-3.596l5.34-3.178c.094-.057.196-.101.302-.13.381-.184.798-.28 1.22-.279 1.073 0 2.057.606 2.55 1.57a12.605 12.605 0 0 1 1.12 8.987z"/>
    </g>
</svg>
